# xmcd
#
# Track frame offsets:
#	150
#	16524
#	35907
#	51762
#	72865
#	87450
#	106718
#	129459
#	144264
#	152702
#	174056
#	192458
#	210158
#
# Disc length: 3060 seconds
#
# Revision: 0
# Processed by: cddbd v1.5.2PL0 Copyright (c) Steve Scherf et al.
# Submitted via: audiograbber 1.83.01
#
DISCID=a00bf20d
DTITLE=Bruce Springsteen - Western Stars
DYEAR=2019
DGENRE=Rock
TTITLE0=Hitch Hikin'
TTITLE1=The Wayfarer
TTITLE2=Tucson Train
TTITLE3=Western Stars
TTITLE4=Sleepy Joe's Café
TTITLE5=Drive Fast (The Stuntman)
TTITLE6=Chasin' Wild Horses
TTITLE7=Sundown
TTITLE8=Somewhere North Of Nashville
TTITLE9=Stones
TTITLE10=There Goes My Miracle
TTITLE11=Hello Sunshine
TTITLE12=Moonlight Motel
EXTD=
EXTT0=
EXTT1=
EXTT2=
EXTT3=
EXTT4=
EXTT5=
EXTT6=
EXTT7=
EXTT8=
EXTT9=
EXTT10=
EXTT11=
EXTT12=
PLAYORDER=
